STARTFONT 2.1
FONT -Monotype-Century Gothic-Regular-R-Normal--14-140-75-75-P-66-iso8859-2
SIZE 14 75 75
FONTBOUNDINGBOX 21 18 -3 -3

STARTPROPERTIES 24
FOUNDRY "Monotype"
FAMILY_NAME "Century Gothic"
WEIGHT_NAME "Regular"
SLANT "R"
SETWIDTH_NAME "Normal"
ADD_STYLE_NAME ""
PIXEL_SIZE 14
POINT_SIZE 140
RESOLUTION_X 75
RESOLUTION_Y 75
SPACING "P"
AVERAGE_WIDTH 66
CHARSET_REGISTRY "iso8859"
CHARSET_ENCODING "2"
FACE_NAME "Century Gothic ISO Latin2"
_DEC_DEVICE_FONTNAMES "PS=centurygothic-lat2"
COPYRIGHT "Copyright (c) 1994 Monotype Typography Ltd."
CAP_HEIGHT 12
X_HEIGHT 9
WEIGHT 10
QUAD_WIDTH 9
DEFAULT_CHAR 160
FONT_DESCENT 3
FONT_ASCENT 15
ENDPROPERTIES

CHARS 191

STARTCHAR space
ENCODING 32
SWIDTH 277 0
DWIDTH 4 0
BBX 0 0 0 0
BITMAP
ENDCHAR

STARTCHAR exclam
ENCODING 33
SWIDTH 295 0
DWIDTH 4 0
BBX 1 11 1 0
BITMAP
80
80
80
80
80
80
80
80
00
80
80
ENDCHAR

STARTCHAR quotedbl
ENCODING 34
SWIDTH 309 0
DWIDTH 5 0
BBX 4 4 0 7
BITMAP
90
90
90
90
ENDCHAR

STARTCHAR numbersign
ENCODING 35
SWIDTH 720 0
DWIDTH 11 0
BBX 8 12 2 0
BITMAP
12
12
12
12
7F
24
24
FE
48
48
48
48
ENDCHAR

STARTCHAR dollar
ENCODING 36
SWIDTH 554 0
DWIDTH 7 0
BBX 6 13 1 -1
BITMAP
10
78
94
90
90
50
30
28
24
24
A4
78
20
ENDCHAR

STARTCHAR percent
ENCODING 37
SWIDTH 775 0
DWIDTH 12 0
BBX 11 13 1 -2
BITMAP
01C0
7A80
8D00
8900
8A00
7400
0400
09C0
0A20
1220
2220
21C0
4000
ENDCHAR

STARTCHAR ampersand
ENCODING 38
SWIDTH 757 0
DWIDTH 11 0
BBX 10 11 1 0
BITMAP
3800
4400
4400
2800
1000
3800
4400
8280
8300
8680
7840
ENDCHAR

STARTCHAR quoteright
ENCODING 39
SWIDTH 351 0
DWIDTH 5 0
BBX 2 4 1 7
BITMAP
40
40
40
80
ENDCHAR

STARTCHAR parenleft
ENCODING 40
SWIDTH 369 0
DWIDTH 6 0
BBX 3 15 2 -3
BITMAP
20
40
40
80
80
80
80
80
80
80
80
80
40
40
20
ENDCHAR

STARTCHAR parenright
ENCODING 41
SWIDTH 369 0
DWIDTH 6 0
BBX 3 15 2 -3
BITMAP
80
40
40
20
20
20
20
20
20
20
20
20
40
40
80
ENDCHAR

STARTCHAR asterisk
ENCODING 42
SWIDTH 425 0
DWIDTH 6 0
BBX 5 6 1 5
BITMAP
20
A8
68
B0
A8
20
ENDCHAR

STARTCHAR plus
ENCODING 43
SWIDTH 606 0
DWIDTH 9 0
BBX 7 7 1 2
BITMAP
10
10
10
FE
10
10
10
ENDCHAR

STARTCHAR comma
ENCODING 44
SWIDTH 277 0
DWIDTH 4 0
BBX 3 4 0 -2
BITMAP
20
60
40
80
ENDCHAR

STARTCHAR minus
ENCODING 45
SWIDTH 606 0
DWIDTH 9 0
BBX 7 1 1 5
BITMAP
FE
ENDCHAR

STARTCHAR period
ENCODING 46
SWIDTH 277 0
DWIDTH 4 0
BBX 1 2 1 0
BITMAP
80
80
ENDCHAR

STARTCHAR slash
ENCODING 47
SWIDTH 437 0
DWIDTH 7 0
BBX 5 13 1 -2
BITMAP
08
08
10
10
10
20
20
20
40
40
80
80
80
ENDCHAR

STARTCHAR zero
ENCODING 48
SWIDTH 554 0
DWIDTH 8 0
BBX 7 11 1 0
BITMAP
38
44
82
82
82
82
82
82
82
44
38
ENDCHAR

STARTCHAR one
ENCODING 49
SWIDTH 554 0
DWIDTH 8 0
BBX 3 11 2 0
BITMAP
E0
20
20
20
20
20
20
20
20
20
20
ENDCHAR

STARTCHAR two
ENCODING 50
SWIDTH 554 0
DWIDTH 8 0
BBX 7 11 1 0
BITMAP
38
44
82
82
02
04
08
10
20
40
FE
ENDCHAR

STARTCHAR three
ENCODING 51
SWIDTH 554 0
DWIDTH 8 0
BBX 7 11 1 0
BITMAP
38
44
44
04
18
04
02
02
82
44
38
ENDCHAR

STARTCHAR four
ENCODING 52
SWIDTH 554 0
DWIDTH 8 0
BBX 7 11 1 0
BITMAP
04
04
0C
14
24
44
84
FE
04
04
04
ENDCHAR

STARTCHAR five
ENCODING 53
SWIDTH 554 0
DWIDTH 8 0
BBX 7 11 1 0
BITMAP
3E
20
20
20
38
44
02
02
82
44
38
ENDCHAR

STARTCHAR six
ENCODING 54
SWIDTH 554 0
DWIDTH 8 0
BBX 7 11 1 0
BITMAP
04
08
10
20
40
78
84
82
82
44
38
ENDCHAR

STARTCHAR seven
ENCODING 55
SWIDTH 554 0
DWIDTH 8 0
BBX 7 11 1 0
BITMAP
FE
02
04
04
08
10
10
20
40
40
80
ENDCHAR

STARTCHAR eight
ENCODING 56
SWIDTH 554 0
DWIDTH 8 0
BBX 7 11 1 0
BITMAP
38
44
82
82
44
38
44
82
82
44
38
ENDCHAR

STARTCHAR nine
ENCODING 57
SWIDTH 554 0
DWIDTH 8 0
BBX 7 11 1 0
BITMAP
38
44
82
82
42
3C
04
08
10
20
40
ENDCHAR

STARTCHAR colon
ENCODING 58
SWIDTH 277 0
DWIDTH 4 0
BBX 1 8 1 0
BITMAP
80
80
00
00
00
00
80
80
ENDCHAR

STARTCHAR semicolon
ENCODING 59
SWIDTH 277 0
DWIDTH 4 0
BBX 3 10 0 -2
BITMAP
20
20
00
00
00
00
20
60
40
80
ENDCHAR

STARTCHAR less
ENCODING 60
SWIDTH 606 0
DWIDTH 9 0
BBX 7 8 1 1
BITMAP
02
0C
30
C0
C0
30
0C
02
ENDCHAR

STARTCHAR equal
ENCODING 61
SWIDTH 606 0
DWIDTH 9 0
BBX 7 4 1 3
BITMAP
FE
00
00
FE
ENDCHAR

STARTCHAR greater
ENCODING 62
SWIDTH 606 0
DWIDTH 9 0
BBX 7 8 2 1
BITMAP
80
60
18
06
06
18
60
80
ENDCHAR

STARTCHAR question
ENCODING 63
SWIDTH 591 0
DWIDTH 9 0
BBX 6 11 2 0
BITMAP
78
84
84
18
60
80
88
70
00
20
20
ENDCHAR

STARTCHAR at
ENCODING 64
SWIDTH 867 0
DWIDTH 13 0
BBX 12 12 1 0
BITMAP
1F80
6060
4020
8E90
9190
9090
9090
91A0
8EC0
4000
60C0
1F00
ENDCHAR

STARTCHAR A
ENCODING 65
SWIDTH 740 0
DWIDTH 11 0
BBX 9 11 1 0
BITMAP
0800
0800
1400
1400
2200
2200
7F00
4100
4100
8080
8080
ENDCHAR

STARTCHAR B
ENCODING 66
SWIDTH 574 0
DWIDTH 9 0
BBX 7 11 1 0
BITMAP
F0
88
84
84
88
F8
84
82
82
84
F8
ENDCHAR

STARTCHAR C
ENCODING 67
SWIDTH 813 0
DWIDTH 12 0
BBX 10 11 1 0
BITMAP
1F00
60C0
4040
8000
8000
8000
8000
8000
4040
60C0
1F00
ENDCHAR

STARTCHAR D
ENCODING 68
SWIDTH 744 0
DWIDTH 11 0
BBX 9 11 1 0
BITMAP
FC00
8300
8100
8080
8080
8080
8080
8080
8100
8300
FC00
ENDCHAR

STARTCHAR E
ENCODING 69
SWIDTH 536 0
DWIDTH 8 0
BBX 6 11 1 0
BITMAP
FC
80
80
80
80
FC
80
80
80
80
FC
ENDCHAR

STARTCHAR F
ENCODING 70
SWIDTH 485 0
DWIDTH 7 0
BBX 6 11 1 0
BITMAP
FC
80
80
80
80
FC
80
80
80
80
80
ENDCHAR

STARTCHAR G
ENCODING 71
SWIDTH 872 0
DWIDTH 12 0
BBX 10 11 1 0
BITMAP
1F00
60C0
4040
8000
8000
8000
81C0
8040
4040
6080
1F00
ENDCHAR

STARTCHAR H
ENCODING 72
SWIDTH 683 0
DWIDTH 10 0
BBX 8 11 1 0
BITMAP
81
81
81
81
81
FF
81
81
81
81
81
ENDCHAR

STARTCHAR I
ENCODING 73
SWIDTH 226 0
DWIDTH 3 0
BBX 1 11 1 0
BITMAP
80
80
80
80
80
80
80
80
80
80
80
ENDCHAR

STARTCHAR J
ENCODING 74
SWIDTH 482 0
DWIDTH 7 0
BBX 5 11 1 0
BITMAP
08
08
08
08
08
08
08
08
08
88
70
ENDCHAR

STARTCHAR K
ENCODING 75
SWIDTH 591 0
DWIDTH 9 0
BBX 7 11 1 0
BITMAP
84
88
90
A0
C0
C0
A0
90
88
84
82
ENDCHAR

STARTCHAR L
ENCODING 76
SWIDTH 462 0
DWIDTH 7 0
BBX 5 11 1 0
BITMAP
80
80
80
80
80
80
80
80
80
80
F8
ENDCHAR

STARTCHAR M
ENCODING 77
SWIDTH 919 0
DWIDTH 15 0
BBX 13 11 1 0
BITMAP
2020
2020
3060
28A0
4890
4890
4510
4510
8508
8208
8208
ENDCHAR

STARTCHAR N
ENCODING 78
SWIDTH 740 0
DWIDTH 10 0
BBX 8 11 1 0
BITMAP
81
C1
A1
A1
91
91
89
85
85
83
81
ENDCHAR

STARTCHAR O
ENCODING 79
SWIDTH 869 0
DWIDTH 13 0
BBX 11 11 1 0
BITMAP
1F00
60C0
4040
8020
8020
8020
8020
8020
4040
60C0
1F00
ENDCHAR

STARTCHAR P
ENCODING 80
SWIDTH 592 0
DWIDTH 9 0
BBX 7 11 1 0
BITMAP
FC
82
82
82
82
FC
80
80
80
80
80
ENDCHAR

STARTCHAR Q
ENCODING 81
SWIDTH 871 0
DWIDTH 13 0
BBX 11 12 1 -1
BITMAP
1F00
60C0
4040
8020
8020
8020
8620
8220
4140
60C0
1F60
0020
ENDCHAR

STARTCHAR R
ENCODING 82
SWIDTH 607 0
DWIDTH 9 0
BBX 7 11 1 0
BITMAP
FC
82
82
82
82
FC
A0
90
88
84
82
ENDCHAR

STARTCHAR S
ENCODING 83
SWIDTH 498 0
DWIDTH 8 0
BBX 6 11 1 0
BITMAP
78
84
80
80
40
30
08
04
04
84
78
ENDCHAR

STARTCHAR T
ENCODING 84
SWIDTH 426 0
DWIDTH 7 0
BBX 5 11 1 0
BITMAP
F8
20
20
20
20
20
20
20
20
20
20
ENDCHAR

STARTCHAR U
ENCODING 85
SWIDTH 655 0
DWIDTH 10 0
BBX 8 11 1 0
BITMAP
81
81
81
81
81
81
81
81
81
42
3C
ENDCHAR

STARTCHAR V
ENCODING 86
SWIDTH 702 0
DWIDTH 9 0
BBX 9 11 0 0
BITMAP
8080
8080
4100
4100
4100
2200
2200
1400
1400
0800
0800
ENDCHAR

STARTCHAR W
ENCODING 87
SWIDTH 960 0
DWIDTH 15 0
BBX 13 11 1 0
BITMAP
8208
8208
8208
4510
4510
4510
28A0
28A0
1040
1040
1040
ENDCHAR

STARTCHAR X
ENCODING 88
SWIDTH 609 0
DWIDTH 9 0
BBX 7 11 1 0
BITMAP
82
82
44
44
28
10
28
44
44
82
82
ENDCHAR

STARTCHAR Y
ENCODING 89
SWIDTH 592 0
DWIDTH 9 0
BBX 7 11 1 0
BITMAP
82
82
44
44
28
10
10
10
10
10
10
ENDCHAR

STARTCHAR Z
ENCODING 90
SWIDTH 480 0
DWIDTH 8 0
BBX 6 11 1 0
BITMAP
FC
08
08
10
10
20
20
20
40
40
FC
ENDCHAR

STARTCHAR bracketleft
ENCODING 91
SWIDTH 351 0
DWIDTH 5 0
BBX 2 14 2 -3
BITMAP
C0
80
80
80
80
80
80
80
80
80
80
80
80
C0
ENDCHAR

STARTCHAR backslash
ENCODING 92
SWIDTH 605 0
DWIDTH 9 0
BBX 9 13 0 -2
BITMAP
8000
4000
2000
2000
1000
1000
0800
0400
0400
0200
0200
0100
0080
ENDCHAR

STARTCHAR bracketright
ENCODING 93
SWIDTH 351 0
DWIDTH 5 0
BBX 2 14 2 -3
BITMAP
C0
40
40
40
40
40
40
40
40
40
40
40
40
C0
ENDCHAR

STARTCHAR asciicircum
ENCODING 94
SWIDTH 672 0
DWIDTH 10 0
BBX 8 8 2 3
BITMAP
10
10
28
28
44
44
82
81
ENDCHAR

STARTCHAR underscore
ENCODING 95
SWIDTH 500 0
DWIDTH 8 0
BBX 8 1 0 -2
BITMAP
FF
ENDCHAR

STARTCHAR quoteleft
ENCODING 96
SWIDTH 351 0
DWIDTH 5 0
BBX 2 4 2 7
BITMAP
40
80
80
80
ENDCHAR

STARTCHAR a
ENCODING 97
SWIDTH 683 0
DWIDTH 10 0
BBX 8 8 1 0
BITMAP
3D
43
81
81
81
81
43
3D
ENDCHAR

STARTCHAR b
ENCODING 98
SWIDTH 682 0
DWIDTH 10 0
BBX 8 11 1 0
BITMAP
80
80
80
BC
C2
81
81
81
81
C2
BC
ENDCHAR

STARTCHAR c
ENCODING 99
SWIDTH 647 0
DWIDTH 9 0
BBX 7 8 1 0
BITMAP
3C
42
80
80
80
80
42
3C
ENDCHAR

STARTCHAR d
ENCODING 100
SWIDTH 685 0
DWIDTH 10 0
BBX 8 11 1 0
BITMAP
01
01
01
3D
43
81
81
81
81
43
3D
ENDCHAR

STARTCHAR e
ENCODING 101
SWIDTH 650 0
DWIDTH 10 0
BBX 8 8 1 0
BITMAP
3C
42
81
FF
80
81
42
3C
ENDCHAR

STARTCHAR f
ENCODING 102
SWIDTH 314 0
DWIDTH 5 0
BBX 4 11 1 0
BITMAP
30
40
40
F0
40
40
40
40
40
40
40
ENDCHAR

STARTCHAR g
ENCODING 103
SWIDTH 673 0
DWIDTH 10 0
BBX 8 11 1 -3
BITMAP
3D
43
81
81
81
81
43
3D
01
42
3C
ENDCHAR

STARTCHAR h
ENCODING 104
SWIDTH 610 0
DWIDTH 9 0
BBX 7 11 1 0
BITMAP
80
80
80
B8
C4
82
82
82
82
82
82
ENDCHAR

STARTCHAR i
ENCODING 105
SWIDTH 200 0
DWIDTH 3 0
BBX 1 11 1 0
BITMAP
80
80
00
80
80
80
80
80
80
80
80
ENDCHAR

STARTCHAR j
ENCODING 106
SWIDTH 203 0
DWIDTH 3 0
BBX 2 14 0 -3
BITMAP
40
40
00
40
40
40
40
40
40
40
40
40
40
80
ENDCHAR

STARTCHAR k
ENCODING 107
SWIDTH 502 0
DWIDTH 8 0
BBX 6 11 1 0
BITMAP
80
80
80
84
88
90
E0
A0
90
88
84
ENDCHAR

STARTCHAR l
ENCODING 108
SWIDTH 200 0
DWIDTH 3 0
BBX 1 11 1 0
BITMAP
80
80
80
80
80
80
80
80
80
80
80
ENDCHAR

STARTCHAR m
ENCODING 109
SWIDTH 938 0
DWIDTH 15 0
BBX 13 8 1 0
BITMAP
B8E0
C710
8208
8208
8208
8208
8208
8208
ENDCHAR

STARTCHAR n
ENCODING 110
SWIDTH 610 0
DWIDTH 9 0
BBX 7 8 1 0
BITMAP
B8
C4
82
82
82
82
82
82
ENDCHAR

STARTCHAR o
ENCODING 111
SWIDTH 655 0
DWIDTH 10 0
BBX 8 8 1 0
BITMAP
3C
42
81
81
81
81
42
3C
ENDCHAR

STARTCHAR p
ENCODING 112
SWIDTH 682 0
DWIDTH 10 0
BBX 8 11 1 -3
BITMAP
BC
C2
81
81
81
81
C2
BC
80
80
80
ENDCHAR

STARTCHAR q
ENCODING 113
SWIDTH 682 0
DWIDTH 10 0
BBX 8 11 1 -3
BITMAP
3D
43
81
81
81
81
43
3D
01
01
01
ENDCHAR

STARTCHAR r
ENCODING 114
SWIDTH 301 0
DWIDTH 5 0
BBX 4 8 1 0
BITMAP
B0
C0
80
80
80
80
80
80
ENDCHAR

STARTCHAR s
ENCODING 115
SWIDTH 388 0
DWIDTH 7 0
BBX 5 8 1 0
BITMAP
70
88
80
60
10
08
88
70
ENDCHAR

STARTCHAR t
ENCODING 116
SWIDTH 339 0
DWIDTH 5 0
BBX 5 11 0 0
BITMAP
20
20
20
F8
20
20
20
20
20
20
20
ENDCHAR

STARTCHAR u
ENCODING 117
SWIDTH 608 0
DWIDTH 9 0
BBX 7 8 1 0
BITMAP
82
82
82
82
82
82
44
38
ENDCHAR

STARTCHAR v
ENCODING 118
SWIDTH 554 0
DWIDTH 7 0
BBX 7 8 0 0
BITMAP
82
82
44
44
28
28
10
10
ENDCHAR

STARTCHAR w
ENCODING 119
SWIDTH 831 0
DWIDTH 11 0
BBX 11 8 0 0
BITMAP
8420
8420
4440
4A40
2A80
2A80
1100
1100
ENDCHAR

STARTCHAR x
ENCODING 120
SWIDTH 480 0
DWIDTH 7 0
BBX 7 8 0 0
BITMAP
82
44
28
10
10
28
44
82
ENDCHAR

STARTCHAR y
ENCODING 121
SWIDTH 536 0
DWIDTH 8 0
BBX 7 11 1 -3
BITMAP
82
82
44
44
28
28
10
10
20
20
40
ENDCHAR

STARTCHAR z
ENCODING 122
SWIDTH 425 0
DWIDTH 6 0
BBX 6 8 0 0
BITMAP
FC
08
10
10
20
20
40
FC
ENDCHAR

STARTCHAR braceleft
ENCODING 123
SWIDTH 351 0
DWIDTH 5 0
BBX 5 14 0 -3
BITMAP
18
20
20
20
20
20
40
A0
20
20
20
20
20
18
ENDCHAR

STARTCHAR bar
ENCODING 124
SWIDTH 672 0
DWIDTH 10 0
BBX 1 14 5 -3
BITMAP
80
80
80
80
80
80
80
80
80
80
80
80
80
80
ENDCHAR

STARTCHAR braceright
ENCODING 125
SWIDTH 351 0
DWIDTH 5 0
BBX 5 14 0 -3
BITMAP
C0
20
20
20
20
20
10
28
20
20
20
20
20
C0
ENDCHAR

STARTCHAR asciitilde
ENCODING 126
SWIDTH 606 0
DWIDTH 9 0
BBX 7 2 1 4
BITMAP
62
9C
ENDCHAR

STARTCHAR space
ENCODING 160
SWIDTH 277 0
DWIDTH 5 0
BBX 0 0 0 0
BITMAP
ENDCHAR

STARTCHAR Aogonek
ENCODING 161
SWIDTH 740 0
DWIDTH 11 0
BBX 11 14 1 -3
BITMAP
0800
0800
1400
1400
2200
2200
7F00
4100
4100
8080
8080
0080
0080
0060
ENDCHAR

STARTCHAR breve
ENCODING 162
SWIDTH 453 0
DWIDTH 7 0
BBX 6 2 0 10
BITMAP
84
78
ENDCHAR

STARTCHAR Lslash
ENCODING 163
SWIDTH 517 0
DWIDTH 7 0
BBX 6 11 0 0
BITMAP
40
40
40
50
60
40
C0
40
40
40
7C
ENDCHAR

STARTCHAR currency
ENCODING 164
SWIDTH 554 0
DWIDTH 8 0
BBX 8 7 0 2
BITMAP
BD
42
81
81
81
42
BD
ENDCHAR

STARTCHAR Lcaron
ENCODING 165
SWIDTH 462 0
DWIDTH 7 0
BBX 5 11 1 0
BITMAP
90
90
90
A0
80
80
80
80
80
80
F8
ENDCHAR

STARTCHAR Sacute
ENCODING 166
SWIDTH 498 0
DWIDTH 8 0
BBX 6 15 1 0
BITMAP
18
10
20
00
78
84
80
80
40
30
08
04
04
84
78
ENDCHAR

STARTCHAR section
ENCODING 167
SWIDTH 615 0
DWIDTH 9 0
BBX 6 14 2 -3
BITMAP
38
44
40
20
70
88
84
84
44
38
10
08
88
70
ENDCHAR

STARTCHAR dieresis
ENCODING 168
SWIDTH 369 0
DWIDTH 6 0
BBX 4 2 1 9
BITMAP
90
90
ENDCHAR

STARTCHAR Scaron
ENCODING 169
SWIDTH 498 0
DWIDTH 8 0
BBX 6 15 1 0
BITMAP
88
50
20
00
78
84
80
80
40
30
08
04
04
84
78
ENDCHAR

STARTCHAR Scommaaccent
ENCODING 170
SWIDTH 498 0
DWIDTH 8 0
BBX 6 14 1 -3
BITMAP
78
84
80
80
40
30
08
04
04
84
78
00
10
20
ENDCHAR

STARTCHAR Tcaron
ENCODING 171
SWIDTH 426 0
DWIDTH 7 0
BBX 5 15 1 0
BITMAP
88
50
20
00
F8
20
20
20
20
20
20
20
20
20
20
ENDCHAR

STARTCHAR Zacute
ENCODING 172
SWIDTH 480 0
DWIDTH 8 0
BBX 6 15 1 0
BITMAP
18
10
20
00
FC
08
08
10
10
20
20
20
40
40
FC
ENDCHAR

STARTCHAR hyphen
ENCODING 173
SWIDTH 332 0
DWIDTH 5 0
BBX 4 1 1 4
BITMAP
F0
ENDCHAR

STARTCHAR Zcaron
ENCODING 174
SWIDTH 480 0
DWIDTH 8 0
BBX 6 15 1 0
BITMAP
44
28
10
00
FC
08
08
10
10
20
20
20
40
40
FC
ENDCHAR

STARTCHAR Zdotaccent
ENCODING 175
SWIDTH 480 0
DWIDTH 8 0
BBX 6 14 1 0
BITMAP
10
10
00
FC
08
08
10
10
20
20
20
40
40
FC
ENDCHAR

STARTCHAR degree
ENCODING 176
SWIDTH 400 0
DWIDTH 6 0
BBX 5 5 1 6
BITMAP
70
88
88
88
70
ENDCHAR

STARTCHAR aogonek
ENCODING 177
SWIDTH 683 0
DWIDTH 10 0
BBX 10 11 1 -3
BITMAP
3D00
4300
8100
8100
8100
8100
4300
3D00
0100
0100
00C0
ENDCHAR

STARTCHAR ogonek
ENCODING 178
SWIDTH 302 0
DWIDTH 5 0
BBX 3 3 1 -3
BITMAP
80
80
60
ENDCHAR

STARTCHAR lslash
ENCODING 179
SWIDTH 300 0
DWIDTH 3 0
BBX 5 11 -1 0
BITMAP
20
20
20
28
30
20
60
A0
20
20
20
ENDCHAR

STARTCHAR acute
ENCODING 180
SWIDTH 375 0
DWIDTH 6 0
BBX 3 3 2 10
BITMAP
60
40
80
ENDCHAR

STARTCHAR lcaron
ENCODING 181
SWIDTH 206 0
DWIDTH 3 0
BBX 3 11 1 0
BITMAP
A0
A0
C0
80
80
80
80
80
80
80
80
ENDCHAR

STARTCHAR sacute
ENCODING 182
SWIDTH 388 0
DWIDTH 7 0
BBX 5 12 1 0
BITMAP
30
20
40
00
70
88
80
60
10
08
88
70
ENDCHAR

STARTCHAR caron
ENCODING 183
SWIDTH 502 0
DWIDTH 8 0
BBX 5 3 1 9
BITMAP
88
50
20
ENDCHAR

STARTCHAR commaaccent
ENCODING 184
SWIDTH 333 0
DWIDTH 5 0
BBX 2 2 1 -3
BITMAP
40
80
ENDCHAR

STARTCHAR scaron
ENCODING 185
SWIDTH 388 0
DWIDTH 7 0
BBX 5 12 1 0
BITMAP
88
50
20
00
70
88
80
60
10
08
88
70
ENDCHAR

STARTCHAR scommaaccent
ENCODING 186
SWIDTH 388 0
DWIDTH 7 0
BBX 5 11 1 -3
BITMAP
70
88
80
60
10
08
88
70
00
20
40
ENDCHAR

STARTCHAR tcaron
ENCODING 187
SWIDTH 380 0
DWIDTH 5 0
BBX 6 11 0 0
BITMAP
24
24
28
F8
20
20
20
20
20
20
20
ENDCHAR

STARTCHAR zacute
ENCODING 188
SWIDTH 425 0
DWIDTH 6 0
BBX 6 12 0 0
BITMAP
18
10
20
00
FC
08
10
10
20
20
40
FC
ENDCHAR

STARTCHAR hungarumlaut
ENCODING 189
SWIDTH 552 0
DWIDTH 8 0
BBX 6 3 1 9
BITMAP
6C
48
90
ENDCHAR

STARTCHAR zcaron
ENCODING 190
SWIDTH 425 0
DWIDTH 6 0
BBX 6 12 0 0
BITMAP
44
28
10
00
FC
08
10
10
20
20
40
FC
ENDCHAR

STARTCHAR zdotaccent
ENCODING 191
SWIDTH 425 0
DWIDTH 6 0
BBX 6 11 0 0
BITMAP
10
10
00
FC
08
10
10
20
20
40
FC
ENDCHAR

STARTCHAR Racute
ENCODING 192
SWIDTH 607 0
DWIDTH 9 0
BBX 7 15 1 0
BITMAP
18
10
20
00
FC
82
82
82
82
FC
A0
90
88
84
82
ENDCHAR

STARTCHAR Aacute
ENCODING 193
SWIDTH 740 0
DWIDTH 11 0
BBX 9 15 1 0
BITMAP
0600
0400
0800
0000
0800
0800
1400
1400
2200
2200
7F00
4100
4100
8080
8080
ENDCHAR

STARTCHAR Acircumflex
ENCODING 194
SWIDTH 740 0
DWIDTH 11 0
BBX 9 15 1 0
BITMAP
0800
1400
2200
0000
0800
0800
1400
1400
2200
2200
7F00
4100
4100
8080
8080
ENDCHAR

STARTCHAR Abreve
ENCODING 195
SWIDTH 740 0
DWIDTH 11 0
BBX 9 14 1 0
BITMAP
2100
1E00
0000
0800
0800
1400
1400
2200
2200
7F00
4100
4100
8080
8080
ENDCHAR

STARTCHAR Adieresis
ENCODING 196
SWIDTH 740 0
DWIDTH 11 0
BBX 9 14 1 0
BITMAP
2200
2200
0000
0800
0800
1400
1400
2200
2200
7F00
4100
4100
8080
8080
ENDCHAR

STARTCHAR Lacute
ENCODING 197
SWIDTH 462 0
DWIDTH 7 0
BBX 5 15 1 0
BITMAP
18
10
20
00
80
80
80
80
80
80
80
80
80
80
F8
ENDCHAR

STARTCHAR Cacute
ENCODING 198
SWIDTH 813 0
DWIDTH 12 0
BBX 10 15 1 0
BITMAP
0600
0400
0800
0000
1F00
60C0
4040
8000
8000
8000
8000
8000
4040
60C0
1F00
ENDCHAR

STARTCHAR Ccedilla
ENCODING 199
SWIDTH 813 0
DWIDTH 12 0
BBX 10 14 1 -3
BITMAP
1F00
60C0
4040
8000
8000
8000
8000
8000
4040
60C0
1F00
0400
0200
0C00
ENDCHAR

STARTCHAR Ccaron
ENCODING 200
SWIDTH 813 0
DWIDTH 12 0
BBX 10 15 1 0
BITMAP
1100
0A00
0400
0000
1F00
60C0
4040
8000
8000
8000
8000
8000
4040
60C0
1F00
ENDCHAR

STARTCHAR Eacute
ENCODING 201
SWIDTH 536 0
DWIDTH 8 0
BBX 6 15 1 0
BITMAP
18
10
20
00
FC
80
80
80
80
FC
80
80
80
80
FC
ENDCHAR

STARTCHAR Eogonek
ENCODING 202
SWIDTH 536 0
DWIDTH 8 0
BBX 6 14 1 -3
BITMAP
FC
80
80
80
80
FC
80
80
80
80
FC
10
10
0C
ENDCHAR

STARTCHAR Edieresis
ENCODING 203
SWIDTH 536 0
DWIDTH 8 0
BBX 6 14 1 0
BITMAP
48
48
00
FC
80
80
80
80
FC
80
80
80
80
FC
ENDCHAR

STARTCHAR Ecaron
ENCODING 204
SWIDTH 536 0
DWIDTH 8 0
BBX 6 15 1 0
BITMAP
44
28
10
00
FC
80
80
80
80
FC
80
80
80
80
FC
ENDCHAR

STARTCHAR Iacute
ENCODING 205
SWIDTH 226 0
DWIDTH 3 0
BBX 3 15 1 0
BITMAP
60
40
80
00
80
80
80
80
80
80
80
80
80
80
80
ENDCHAR

STARTCHAR Icircumflex
ENCODING 206
SWIDTH 226 0
DWIDTH 3 0
BBX 5 15 -1 0
BITMAP
20
50
88
00
20
20
20
20
20
20
20
20
20
20
20
ENDCHAR

STARTCHAR Dcaron
ENCODING 207
SWIDTH 744 0
DWIDTH 11 0
BBX 9 15 1 0
BITMAP
4400
2800
1000
0000
FC00
8300
8100
8080
8080
8080
8080
8080
8100
8300
FC00
ENDCHAR

STARTCHAR Dcroat
ENCODING 208
SWIDTH 790 0
DWIDTH 11 0
BBX 10 11 0 0
BITMAP
7E00
4180
4080
4040
4040
F040
4040
4040
4080
4180
7E00
ENDCHAR

STARTCHAR Nacute
ENCODING 209
SWIDTH 740 0
DWIDTH 10 0
BBX 8 15 1 0
BITMAP
0C
08
10
00
81
C1
A1
A1
91
91
89
85
85
83
81
ENDCHAR

STARTCHAR Ncaron
ENCODING 210
SWIDTH 740 0
DWIDTH 10 0
BBX 8 15 1 0
BITMAP
22
14
08
00
81
C1
A1
A1
91
91
89
85
85
83
81
ENDCHAR

STARTCHAR Oacute
ENCODING 211
SWIDTH 869 0
DWIDTH 13 0
BBX 11 15 1 0
BITMAP
0300
0200
0400
0000
1F00
60C0
4040
8020
8020
8020
8020
8020
4040
60C0
1F00
ENDCHAR

STARTCHAR Ocircumflex
ENCODING 212
SWIDTH 869 0
DWIDTH 13 0
BBX 11 15 1 0
BITMAP
0400
0A00
1100
0000
1F00
60C0
4040
8020
8020
8020
8020
8020
4040
60C0
1F00
ENDCHAR

STARTCHAR Ohungarumlaut
ENCODING 213
SWIDTH 869 0
DWIDTH 13 0
BBX 11 15 1 0
BITMAP
0D80
0900
1200
0000
1F00
60C0
4040
8020
8020
8020
8020
8020
4040
60C0
1F00
ENDCHAR

STARTCHAR Odieresis
ENCODING 214
SWIDTH 869 0
DWIDTH 13 0
BBX 11 14 1 0
BITMAP
1100
1100
0000
1F00
60C0
4040
8020
8020
8020
8020
8020
4040
60C0
1F00
ENDCHAR

STARTCHAR multiply
ENCODING 215
SWIDTH 606 0
DWIDTH 9 0
BBX 6 6 2 2
BITMAP
84
48
30
30
48
84
ENDCHAR

STARTCHAR Rcaron
ENCODING 216
SWIDTH 607 0
DWIDTH 9 0
BBX 7 15 1 0
BITMAP
44
28
10
00
FC
82
82
82
82
FC
A0
90
88
84
82
ENDCHAR

STARTCHAR Uring
ENCODING 217
SWIDTH 655 0
DWIDTH 10 0
BBX 8 15 1 0
BITMAP
18
24
24
18
81
81
81
81
81
81
81
81
81
42
3C
ENDCHAR

STARTCHAR Uacute
ENCODING 218
SWIDTH 655 0
DWIDTH 10 0
BBX 8 15 1 0
BITMAP
0C
08
10
00
81
81
81
81
81
81
81
81
81
42
3C
ENDCHAR

STARTCHAR Uhungarumlaut
ENCODING 219
SWIDTH 655 0
DWIDTH 10 0
BBX 8 15 1 0
BITMAP
36
24
48
00
81
81
81
81
81
81
81
81
81
42
3C
ENDCHAR

STARTCHAR Udieresis
ENCODING 220
SWIDTH 655 0
DWIDTH 10 0
BBX 8 14 1 0
BITMAP
24
24
00
81
81
81
81
81
81
81
81
81
42
3C
ENDCHAR

STARTCHAR Yacute
ENCODING 221
SWIDTH 592 0
DWIDTH 9 0
BBX 7 15 1 0
BITMAP
0C
08
10
00
82
82
44
44
28
10
10
10
10
10
10
ENDCHAR

STARTCHAR Tcommaaccent
ENCODING 222
SWIDTH 426 0
DWIDTH 7 0
BBX 5 14 1 -3
BITMAP
F8
20
20
20
20
20
20
20
20
20
20
00
20
40
ENDCHAR

STARTCHAR germandbls
ENCODING 223
SWIDTH 554 0
DWIDTH 8 0
BBX 6 12 1 0
BITMAP
38
44
84
84
88
B8
88
84
84
84
88
B0
ENDCHAR

STARTCHAR racute
ENCODING 224
SWIDTH 301 0
DWIDTH 5 0
BBX 4 12 1 0
BITMAP
30
20
40
00
B0
C0
80
80
80
80
80
80
ENDCHAR

STARTCHAR aacute
ENCODING 225
SWIDTH 683 0
DWIDTH 10 0
BBX 8 12 1 0
BITMAP
0C
08
10
00
3D
43
81
81
81
81
43
3D
ENDCHAR

STARTCHAR acircumflex
ENCODING 226
SWIDTH 683 0
DWIDTH 10 0
BBX 8 12 1 0
BITMAP
08
14
22
00
3D
43
81
81
81
81
43
3D
ENDCHAR

STARTCHAR abreve
ENCODING 227
SWIDTH 683 0
DWIDTH 10 0
BBX 8 11 1 0
BITMAP
21
1E
00
3D
43
81
81
81
81
43
3D
ENDCHAR

STARTCHAR adieresis
ENCODING 228
SWIDTH 683 0
DWIDTH 10 0
BBX 8 11 1 0
BITMAP
22
22
00
3D
43
81
81
81
81
43
3D
ENDCHAR

STARTCHAR lacute
ENCODING 229
SWIDTH 200 0
DWIDTH 3 0
BBX 3 15 0 0
BITMAP
60
40
80
00
40
40
40
40
40
40
40
40
40
40
40
ENDCHAR

STARTCHAR cacute
ENCODING 230
SWIDTH 647 0
DWIDTH 9 0
BBX 7 12 1 0
BITMAP
0C
08
10
00
3C
42
80
80
80
80
42
3C
ENDCHAR

STARTCHAR ccedilla
ENCODING 231
SWIDTH 647 0
DWIDTH 9 0
BBX 7 11 1 -3
BITMAP
3C
42
80
80
80
80
42
3C
10
08
30
ENDCHAR

STARTCHAR ccaron
ENCODING 232
SWIDTH 647 0
DWIDTH 9 0
BBX 7 12 1 0
BITMAP
22
14
08
00
3C
42
80
80
80
80
42
3C
ENDCHAR

STARTCHAR eacute
ENCODING 233
SWIDTH 650 0
DWIDTH 10 0
BBX 8 12 1 0
BITMAP
0C
08
10
00
3C
42
81
FF
80
81
42
3C
ENDCHAR

STARTCHAR eogonek
ENCODING 234
SWIDTH 650 0
DWIDTH 10 0
BBX 8 11 1 -3
BITMAP
3C
42
81
FF
80
81
42
3C
10
10
0C
ENDCHAR

STARTCHAR edieresis
ENCODING 235
SWIDTH 650 0
DWIDTH 10 0
BBX 8 11 1 0
BITMAP
22
22
00
3C
42
81
FF
80
81
42
3C
ENDCHAR

STARTCHAR ecaron
ENCODING 236
SWIDTH 650 0
DWIDTH 10 0
BBX 8 12 1 0
BITMAP
22
14
08
00
3C
42
81
FF
80
81
42
3C
ENDCHAR

STARTCHAR iacute
ENCODING 237
SWIDTH 200 0
DWIDTH 3 0
BBX 3 12 1 0
BITMAP
60
40
80
00
80
80
80
80
80
80
80
80
ENDCHAR

STARTCHAR icircumflex
ENCODING 238
SWIDTH 200 0
DWIDTH 3 0
BBX 5 12 -1 0
BITMAP
20
50
88
00
20
20
20
20
20
20
20
20
ENDCHAR

STARTCHAR dcaron
ENCODING 239
SWIDTH 685 0
DWIDTH 10 0
BBX 10 11 1 0
BITMAP
0140
0140
0180
3D00
4300
8100
8100
8100
8100
4300
3D00
ENDCHAR

STARTCHAR dcroat
ENCODING 240
SWIDTH 685 0
DWIDTH 10 0
BBX 9 11 1 0
BITMAP
0100
0780
0100
3D00
4300
8100
8100
8100
8100
4300
3D00
ENDCHAR

STARTCHAR nacute
ENCODING 241
SWIDTH 610 0
DWIDTH 9 0
BBX 7 12 1 0
BITMAP
0C
08
10
00
B8
C4
82
82
82
82
82
82
ENDCHAR

STARTCHAR ncaron
ENCODING 242
SWIDTH 610 0
DWIDTH 9 0
BBX 7 12 1 0
BITMAP
44
28
10
00
BC
C6
82
82
82
82
82
82
ENDCHAR

STARTCHAR oacute
ENCODING 243
SWIDTH 655 0
DWIDTH 10 0
BBX 8 12 1 0
BITMAP
0C
08
10
00
3C
42
81
81
81
81
42
3C
ENDCHAR

STARTCHAR ocircumflex
ENCODING 244
SWIDTH 655 0
DWIDTH 10 0
BBX 8 12 1 0
BITMAP
08
14
22
00
3C
42
81
81
81
81
42
3C
ENDCHAR

STARTCHAR ohungarumlaut
ENCODING 245
SWIDTH 655 0
DWIDTH 10 0
BBX 8 12 1 0
BITMAP
1B
12
24
00
3C
42
81
81
81
81
42
3C
ENDCHAR

STARTCHAR odieresis
ENCODING 246
SWIDTH 655 0
DWIDTH 10 0
BBX 8 11 1 0
BITMAP
24
24
00
3C
42
81
81
81
81
42
3C
ENDCHAR

STARTCHAR divide
ENCODING 247
SWIDTH 606 0
DWIDTH 9 0
BBX 8 9 1 1
BITMAP
18
18
00
00
FF
00
00
18
18
ENDCHAR

STARTCHAR rcaron
ENCODING 248
SWIDTH 301 0
DWIDTH 5 0
BBX 5 12 0 0
BITMAP
88
50
20
00
58
60
40
40
40
40
40
40
ENDCHAR

STARTCHAR uring
ENCODING 249
SWIDTH 608 0
DWIDTH 9 0
BBX 7 12 1 0
BITMAP
10
28
10
00
82
82
82
82
82
82
44
38
ENDCHAR

STARTCHAR uacute
ENCODING 250
SWIDTH 608 0
DWIDTH 9 0
BBX 7 12 1 0
BITMAP
18
10
20
00
82
82
82
82
82
82
44
38
ENDCHAR

STARTCHAR uhungarumlaut
ENCODING 251
SWIDTH 608 0
DWIDTH 9 0
BBX 7 12 1 0
BITMAP
36
24
48
00
82
82
82
82
82
82
44
38
ENDCHAR

STARTCHAR udieresis
ENCODING 252
SWIDTH 608 0
DWIDTH 9 0
BBX 7 11 1 0
BITMAP
44
44
00
82
82
82
82
82
82
44
38
ENDCHAR

STARTCHAR yacute
ENCODING 253
SWIDTH 536 0
DWIDTH 8 0
BBX 7 15 1 -3
BITMAP
18
10
20
00
82
82
44
44
28
28
10
10
20
20
40
ENDCHAR

STARTCHAR tcommaaccent
ENCODING 254
SWIDTH 339 0
DWIDTH 5 0
BBX 5 14 0 -3
BITMAP
20
20
20
F8
20
20
20
20
20
20
20
00
20
40
ENDCHAR

STARTCHAR dotaccent
ENCODING 255
SWIDTH 222 0
DWIDTH 3 0
BBX 2 2 1 9
BITMAP
C0
C0
ENDCHAR
ENDFONT
